<svg width="500" height="500" viewBox="0 0 500 500" fill="none" xmlns="http://www.w3.org/2000/svg">
<rect width="500" height="500" rx="40" fill="#01DC82"/>
<path d="M145.516 154.992C158.016 154.992 170.047 156.672 181.609 160.031C193.172 163.391 203.289 168.781 211.961 176.203C220.633 183.547 227.117 192.023 231.414 201.633C235.711 211.242 237.859 222.297 237.859 234.797C237.859 247.922 235.477 259.992 230.711 271.008C226.023 281.945 219.227 291.242 210.32 298.898C201.414 306.555 190.789 312.18 178.445 315.773C166.102 319.289 153.25 321.047 139.891 321.047C126.688 321.047 114.031 319.328 101.922 315.891C89.8125 312.375 79.2656 306.75 70.2812 299.016C61.375 291.203 55.0469 282.531 51.2969 273C47.5469 263.469 45.6719 252.883 45.6719 241.242C45.6719 224.133 49.6172 209.133 57.5078 196.242C65.4766 183.273 77.2344 173.156 92.7812 165.891C108.406 158.625 125.984 154.992 145.516 154.992ZM143.406 190.266C134.422 190.266 126.297 192.492 119.031 196.945C111.766 201.32 106.18 207.453 102.273 215.344C98.3672 223.156 96.4141 231.555 96.4141 240.539C96.4141 248.82 98.1719 256.398 101.688 263.273C105.281 270.148 110.711 275.539 117.977 279.445C125.242 283.273 132.938 285.188 141.062 285.188C149.734 285.188 157.664 283.039 164.852 278.742C172.117 274.367 177.625 268.273 181.375 260.461C185.203 252.57 187.117 244.328 187.117 235.734C187.117 227.375 185.359 219.68 181.844 212.648C178.328 205.539 173.172 200.031 166.375 196.125C159.578 192.219 151.922 190.266 143.406 190.266ZM253.914 318L256.844 294.328L264.109 212.18L267.742 158.039C282.117 158.195 293.406 158.273 301.609 158.273C308.406 158.273 318.797 158.195 332.781 158.039C333.797 164.758 334.656 169.875 335.359 173.391C336.062 176.828 337.781 183.625 340.516 193.781C343.328 203.859 345.555 212.609 347.195 220.031C348.914 227.375 351.453 239.992 354.812 257.883C358.25 245.617 361.375 235.07 364.188 226.242C367 217.414 370.516 207.375 374.734 196.125C378.953 184.875 381.609 177.531 382.703 174.094C383.875 170.578 385.438 165.227 387.391 158.039C399.109 158.195 410.594 158.273 421.844 158.273C429.5 158.273 440.125 158.195 453.719 158.039C452.234 184.367 451.258 206.984 450.789 225.891C449.773 262.922 449.266 288.391 449.266 302.297C449.266 305.188 449.344 310.422 449.5 318C439.188 317.844 431.961 317.766 427.82 317.766C421.805 317.766 414.422 317.844 405.672 318C406.297 310.969 407.078 294.25 408.016 267.844C408.953 241.359 409.422 224.445 409.422 217.102C409.422 213.898 409.344 209.445 409.188 203.742L393.836 251.438L371.805 318C361.648 317.844 354.656 317.766 350.828 317.766C345.984 317.766 338.562 317.844 328.562 318L314.148 253.547L305.711 219.211C305.398 217.883 305.047 216.242 304.656 214.289C304.266 212.336 303.641 208.898 302.781 203.977L299.852 236.438L295.984 303L295.633 318C284.852 317.844 277.977 317.766 275.008 317.766C270.945 317.766 263.914 317.844 253.914 318Z" fill="#003B3E"/>
<rect x="32" y="209" width="426" height="59" fill="#01DC82"/>
<path d="M100.729 259L101.427 246.273L102.062 227.198L102.189 220.597C102.21 218.84 102.221 217.201 102.221 215.677C102.771 215.698 103.247 215.709 103.649 215.709C104.072 215.709 104.548 215.698 105.077 215.677L104.506 227.167L103.744 250.812L103.585 259C103.056 258.979 102.58 258.968 102.157 258.968C101.734 258.968 101.258 258.979 100.729 259ZM114.25 259L114.979 246.495L115.868 220.787L115.963 215.677C116.471 215.698 117.106 215.709 117.868 215.709C118.651 215.709 119.296 215.698 119.804 215.677C120.862 217.391 121.74 218.777 122.438 219.835C123.136 220.893 124.596 222.998 126.818 226.151L143.1 249.637C144.75 252.028 146.432 254.398 148.146 256.747L149.511 220.597L149.606 215.677C150.156 215.698 150.59 215.709 150.907 215.709C151.246 215.709 151.69 215.698 152.24 215.677L151.637 225.643L150.622 252.748L150.495 259C149.754 258.979 149.109 258.968 148.559 258.968C148.008 258.968 147.374 258.979 146.654 259L140.846 250.367L120.724 221.422L118.375 218.216C118.312 219.295 118.259 220.406 118.217 221.549L117.074 251.256L116.916 259C116.365 258.979 115.921 258.968 115.583 258.968C115.244 258.968 114.8 258.979 114.25 259ZM161.413 259L162.333 243.924L163.19 219.2C163.211 218.29 163.222 217.116 163.222 215.677L170.236 215.709L178.932 215.677C183.016 215.677 186.285 215.995 188.739 216.629C191.215 217.264 193.415 218.576 195.341 220.565C197.266 222.533 198.631 224.776 199.435 227.293C200.239 229.79 200.641 232.488 200.641 235.387C200.641 238.836 200.017 242.168 198.769 245.384C197.541 248.579 195.711 251.266 193.278 253.446C190.866 255.625 188.126 257.096 185.058 257.857C182.011 258.619 178.678 259 175.06 259L168.332 258.968L161.413 259ZM164.142 257C167.887 257.064 170.839 257.096 172.997 257.096C175.134 257.096 177.324 256.99 179.567 256.778C181.831 256.567 183.852 256.186 185.629 255.636C187.406 255.086 189.141 254.081 190.834 252.621C192.548 251.161 193.944 249.531 195.023 247.733C196.124 245.934 196.938 243.945 197.467 241.766C197.996 239.566 198.261 237.344 198.261 235.101C198.261 232.943 198.007 230.869 197.499 228.88C197.139 227.442 196.589 226.098 195.849 224.85C195.023 223.432 194.061 222.236 192.96 221.263C191.881 220.269 190.749 219.528 189.564 219.042C188.38 218.534 186.898 218.174 185.121 217.962C183.513 217.751 181.63 217.634 179.472 217.613H171.918L165.792 217.645L164.142 257ZM209.75 215.677C210.279 215.698 210.755 215.709 211.178 215.709C211.623 215.709 212.109 215.698 212.638 215.677L211.178 241.703L211.115 244.051V244.591C211.115 247.13 211.443 249.214 212.099 250.843C212.755 252.451 213.802 253.795 215.241 254.874C216.701 255.932 218.288 256.673 220.001 257.096C221.736 257.498 223.62 257.699 225.651 257.699C227.597 257.699 229.47 257.498 231.269 257.096C232.623 256.799 233.871 256.345 235.014 255.731C235.924 255.244 236.749 254.631 237.489 253.89C238.23 253.15 238.854 252.314 239.362 251.383C239.891 250.431 240.272 249.436 240.504 248.399C240.928 246.368 241.203 243.882 241.33 240.941L241.964 227.896C242.176 222.988 242.282 218.915 242.282 215.677C242.832 215.698 243.297 215.709 243.678 215.709C244.059 215.709 244.525 215.698 245.075 215.677L244.25 230.118L243.71 242.845C243.541 245.638 243.223 247.955 242.758 249.796C242.462 250.896 242.028 251.944 241.457 252.938C240.906 253.848 240.25 254.652 239.489 255.35C238.621 256.154 237.574 256.863 236.347 257.477C235.014 258.154 233.575 258.661 232.03 259C229.999 259.423 227.904 259.635 225.746 259.635C223.376 259.635 221.229 259.402 219.303 258.937C217.611 258.535 216.055 257.9 214.638 257.032C213.22 256.165 212.067 255.17 211.178 254.049C210.438 253.139 209.845 251.954 209.401 250.494C208.957 249.034 208.734 247.267 208.734 245.194C208.734 243.332 208.798 241.142 208.925 238.624L209.655 221.676C209.718 219.708 209.75 217.708 209.75 215.677ZM251.771 257.667C251.771 256.842 251.708 255.89 251.581 254.811C255.58 256.736 259.23 257.699 262.531 257.699C264.414 257.699 266.117 257.392 267.641 256.778C269.164 256.165 270.338 255.255 271.164 254.049C272.01 252.822 272.433 251.425 272.433 249.859C272.433 249.076 272.317 248.336 272.084 247.638C271.872 246.939 271.513 246.22 271.005 245.479C270.497 244.739 269.608 243.797 268.339 242.655C267.09 241.491 265.006 239.693 262.086 237.259L259.579 235.165C258.712 234.403 257.876 233.609 257.072 232.784C256.268 231.959 255.601 231.197 255.072 230.499C254.543 229.78 254.141 229.145 253.866 228.595C253.612 228.023 253.411 227.399 253.263 226.722C253.115 226.045 253.041 225.347 253.041 224.627C253.041 222.914 253.507 221.316 254.438 219.835C255.368 218.354 256.754 217.18 258.595 216.312C260.436 215.444 262.774 215.011 265.609 215.011C267.577 215.011 270.084 215.296 273.131 215.868C273.153 216.672 273.248 217.56 273.417 218.534C271.47 217.92 269.852 217.507 268.561 217.296C267.27 217.084 266.043 216.979 264.879 216.979C262.785 216.979 261.06 217.328 259.706 218.026C258.352 218.703 257.305 219.623 256.564 220.787C255.823 221.93 255.453 223.136 255.453 224.405C255.453 225.082 255.548 225.749 255.739 226.405C255.929 227.04 256.236 227.695 256.659 228.373C257.104 229.028 257.685 229.758 258.405 230.562C259.124 231.345 260.055 232.245 261.198 233.26C262.361 234.276 263.896 235.577 265.8 237.164C267.725 238.751 269.058 239.883 269.799 240.56C270.561 241.216 271.28 241.925 271.957 242.687C272.634 243.448 273.184 244.21 273.607 244.972C274.031 245.712 274.337 246.485 274.528 247.289C274.739 248.093 274.845 248.939 274.845 249.828C274.845 251.817 274.337 253.562 273.322 255.064C272.327 256.567 270.846 257.709 268.878 258.492C266.932 259.254 264.742 259.635 262.309 259.635C260.743 259.635 259.219 259.508 257.738 259.254C256.257 259.021 254.268 258.492 251.771 257.667ZM291.349 259L291.825 251.097L293.063 217.645C287.837 217.645 283.288 217.74 279.416 217.931C279.521 217.063 279.574 216.312 279.574 215.677C284.674 215.698 289.931 215.709 295.348 215.709L304.394 215.677H309.186C309.08 216.524 309.027 217.275 309.027 217.931C306.467 217.74 302.574 217.645 297.348 217.645H295.507L294.237 252.589C294.216 253.076 294.206 253.562 294.206 254.049V259C293.677 258.979 293.201 258.968 292.777 258.968C292.375 258.968 291.899 258.979 291.349 259ZM313.502 259L314.01 251.319L314.931 227.42L315.058 220.628L315.089 215.677L321.405 215.709L328.642 215.677C331.646 215.677 333.836 216.079 335.211 216.883C336.587 217.666 337.666 218.798 338.449 220.279C339.253 221.739 339.655 223.421 339.655 225.326C339.655 227.695 339.052 229.875 337.846 231.864C336.661 233.832 335.032 235.334 332.958 236.371C330.884 237.407 328.504 237.926 325.817 237.926C325.478 237.926 324.971 237.905 324.293 237.862L339.496 259C338.967 258.979 338.417 258.968 337.846 258.968C337.253 258.968 336.703 258.979 336.195 259L332.038 252.716L319.945 235.609C321.828 235.947 323.458 236.117 324.833 236.117C326.505 236.117 328.123 235.895 329.689 235.45C331.255 234.985 332.598 234.297 333.72 233.387C334.841 232.477 335.709 231.345 336.322 229.991C336.936 228.616 337.243 227.124 337.243 225.516C337.243 224.437 337.095 223.432 336.798 222.501C336.502 221.57 336.026 220.755 335.37 220.057C334.714 219.338 334.037 218.83 333.339 218.534C332.662 218.237 331.784 218.026 330.705 217.899C329.625 217.751 328.483 217.677 327.277 217.677L322.072 217.708C320.929 217.708 319.469 217.687 317.692 217.645C316.994 234.382 316.592 248.167 316.486 259C315.957 258.979 315.46 258.968 314.994 258.968C314.529 258.968 314.031 258.979 313.502 259ZM346.447 259L347.145 246.273L347.78 227.198L347.907 220.597C347.928 218.84 347.938 217.201 347.938 215.677C348.489 215.698 348.965 215.709 349.367 215.709C349.79 215.709 350.266 215.698 350.795 215.677L350.224 227.167L349.462 250.812L349.303 259C348.774 258.979 348.298 258.968 347.875 258.968C347.452 258.968 346.976 258.979 346.447 259ZM359.967 259C360.369 253.266 360.729 245.871 361.046 236.815C361.385 227.738 361.554 220.692 361.554 215.677C366.251 215.698 370.663 215.709 374.789 215.709L386.374 215.677C386.289 216.524 386.247 217.275 386.247 217.931L383.708 217.74C383.052 217.677 381.909 217.645 380.28 217.645C378.651 217.624 377.053 217.613 375.487 217.613C370.473 217.613 366.664 217.624 364.062 217.645L363.427 235.831C366.622 235.895 369.552 235.926 372.218 235.926C375.392 235.926 379.306 235.895 383.961 235.831C383.877 236.466 383.824 237.164 383.803 237.926L371.837 237.831C370.441 237.831 367.606 237.862 363.332 237.926L362.665 257L371.774 257.032C375.35 257.032 377.825 257.022 379.201 257C380.597 256.958 382.491 256.874 384.882 256.747C384.776 257.593 384.723 258.344 384.723 259C379.645 258.979 375.932 258.968 373.583 258.968L359.967 259ZM391.737 257.667C391.737 256.842 391.674 255.89 391.547 254.811C395.546 256.736 399.196 257.699 402.497 257.699C404.38 257.699 406.083 257.392 407.606 256.778C409.13 256.165 410.304 255.255 411.129 254.049C411.976 252.822 412.399 251.425 412.399 249.859C412.399 249.076 412.283 248.336 412.05 247.638C411.838 246.939 411.479 246.22 410.971 245.479C410.463 244.739 409.574 243.797 408.305 242.655C407.056 241.491 404.972 239.693 402.052 237.259L399.545 235.165C398.677 234.403 397.842 233.609 397.038 232.784C396.234 231.959 395.567 231.197 395.038 230.499C394.509 229.78 394.107 229.145 393.832 228.595C393.578 228.023 393.377 227.399 393.229 226.722C393.081 226.045 393.007 225.347 393.007 224.627C393.007 222.914 393.472 221.316 394.403 219.835C395.334 218.354 396.72 217.18 398.561 216.312C400.402 215.444 402.74 215.011 405.575 215.011C407.543 215.011 410.05 215.296 413.097 215.868C413.118 216.672 413.214 217.56 413.383 218.534C411.436 217.92 409.818 217.507 408.527 217.296C407.236 217.084 406.009 216.979 404.845 216.979C402.75 216.979 401.026 217.328 399.672 218.026C398.318 218.703 397.27 219.623 396.53 220.787C395.789 221.93 395.419 223.136 395.419 224.405C395.419 225.082 395.514 225.749 395.705 226.405C395.895 227.04 396.202 227.695 396.625 228.373C397.069 229.028 397.651 229.758 398.371 230.562C399.09 231.345 400.021 232.245 401.164 233.26C402.327 234.276 403.861 235.577 405.766 237.164C407.691 238.751 409.024 239.883 409.765 240.56C410.526 241.216 411.246 241.925 411.923 242.687C412.6 243.448 413.15 244.21 413.573 244.972C413.996 245.712 414.303 246.485 414.494 247.289C414.705 248.093 414.811 248.939 414.811 249.828C414.811 251.817 414.303 253.562 413.288 255.064C412.293 256.567 410.812 257.709 408.844 258.492C406.898 259.254 404.708 259.635 402.274 259.635C400.709 259.635 399.185 259.508 397.704 259.254C396.223 259.021 394.234 258.492 391.737 257.667Z" fill="#003B3E"/>
</svg>
