<svg width="384" height="141" viewBox="0 0 384 141" fill="none" xmlns="http://www.w3.org/2000/svg">
<g filter="url(#filter0_d_225_453)">
<path d="M56.5 50.5L0 107.5L16.5 117L59 73L140.5 120.5L205 55.5V29.5L137.5 98L56.5 50.5Z" fill="#0E2442"/>
</g>
<path d="M80.418 26.582L69.8484 37.1516C68.9168 38.0832 69.1247 39.6452 70.2674 40.3007L131.173 75.2386C131.956 75.688 132.943 75.5566 133.582 74.918L144.152 64.3484C145.083 63.4168 144.875 61.8548 143.733 61.1993L82.8273 26.2614C82.0439 25.812 81.0566 25.9434 80.418 26.582Z" fill="#018ABE"/>
<path d="M105.418 1.08204L94.8484 11.6516C93.9168 12.5832 94.1247 14.1452 95.2674 14.8007L156.173 49.7386C156.956 50.188 157.943 50.0566 158.582 49.418L169.152 38.8484C170.083 37.9168 169.875 36.3548 168.733 35.6993L107.827 0.761424C107.044 0.312033 106.057 0.443424 105.418 1.08204Z" fill="#018ABE"/>
<path d="M220.132 103V84.956H222.576V103H220.132ZM221.796 95.07V92.834H231.208V95.07H221.796ZM221.796 87.192V84.956H231.65V87.192H221.796ZM245.259 103V84.956H247.703V103H245.259ZM262.362 103V84.956H264.078L264.806 87.79V103H262.362ZM274.842 103L263.766 88.206L264.078 84.956L275.18 99.724L274.842 103ZM274.842 103L274.114 100.322V84.956H276.558V103H274.842ZM297.123 103L289.895 84.956H292.547L298.501 100.218H297.539L303.545 84.956H306.171L298.891 103H297.123ZM319.521 103V84.956H321.965V103H319.521ZM321.185 103V100.764H331.533V103H321.185ZM321.185 94.836V92.704H330.675V94.836H321.185ZM321.185 87.192V84.956H331.403V87.192H321.185ZM349.818 103.26C348.397 103.26 347.183 103 346.178 102.48C345.173 101.96 344.28 101.206 343.5 100.218L345.164 98.554C345.736 99.3513 346.395 99.958 347.14 100.374C347.885 100.773 348.804 100.972 349.896 100.972C350.971 100.972 351.829 100.738 352.47 100.27C353.129 99.802 353.458 99.1607 353.458 98.346C353.458 97.67 353.302 97.124 352.99 96.708C352.678 96.292 352.253 95.954 351.716 95.694C351.196 95.4167 350.624 95.174 350 94.966C349.376 94.7407 348.752 94.5067 348.128 94.264C347.504 94.004 346.932 93.692 346.412 93.328C345.892 92.9467 345.467 92.4527 345.138 91.846C344.826 91.2393 344.67 90.4767 344.67 89.558C344.67 88.5353 344.913 87.6687 345.398 86.958C345.901 86.23 346.577 85.6753 347.426 85.294C348.293 84.8953 349.263 84.696 350.338 84.696C351.517 84.696 352.574 84.93 353.51 85.398C354.446 85.8487 355.209 86.4467 355.798 87.192L354.134 88.856C353.597 88.232 353.016 87.764 352.392 87.452C351.785 87.14 351.083 86.984 350.286 86.984C349.315 86.984 348.544 87.2007 347.972 87.634C347.4 88.05 347.114 88.6393 347.114 89.402C347.114 90.0087 347.27 90.5027 347.582 90.884C347.911 91.248 348.336 91.56 348.856 91.82C349.376 92.08 349.948 92.3227 350.572 92.548C351.213 92.756 351.846 92.99 352.47 93.25C353.094 93.51 353.666 93.8393 354.186 94.238C354.706 94.6367 355.122 95.1567 355.434 95.798C355.763 96.422 355.928 97.2107 355.928 98.164C355.928 99.7587 355.373 101.007 354.264 101.908C353.172 102.809 351.69 103.26 349.818 103.26ZM373.568 103V85.476H376.012V103H373.568ZM367.432 87.192V84.956H382.122V87.192H367.432Z" fill="#0E2442"/>
<path d="M239.77 57.98V55.848H244.684C245.36 55.848 245.958 55.7093 246.478 55.432C247.015 55.1547 247.431 54.7647 247.726 54.262C248.038 53.7593 248.194 53.1613 248.194 52.468C248.194 51.7747 248.038 51.1767 247.726 50.674C247.431 50.1713 247.015 49.7813 246.478 49.504C245.958 49.2267 245.36 49.088 244.684 49.088H239.77V46.956H244.84C245.949 46.956 246.937 47.1813 247.804 47.632C248.688 48.0827 249.381 48.724 249.884 49.556C250.404 50.3707 250.664 51.3413 250.664 52.468C250.664 53.5773 250.404 54.548 249.884 55.38C249.381 56.1947 248.688 56.836 247.804 57.304C246.937 57.7547 245.949 57.98 244.84 57.98H239.77ZM238.132 65V46.956H240.576V65H238.132ZM261.247 65L268.631 46.956H270.399L277.757 65H275.105L269.047 49.738H269.957L263.847 65H261.247ZM264.757 60.918V58.786H274.247V60.918H264.757ZM292.511 57.148V55.094H297.399C298.457 55.094 299.271 54.8253 299.843 54.288C300.415 53.7507 300.701 53.0227 300.701 52.104C300.701 51.2373 300.415 50.518 299.843 49.946C299.289 49.374 298.483 49.088 297.425 49.088H292.511V46.956H297.503C298.647 46.956 299.644 47.1813 300.493 47.632C301.343 48.0653 301.993 48.6633 302.443 49.426C302.911 50.1887 303.145 51.064 303.145 52.052C303.145 53.0747 302.911 53.9673 302.443 54.73C301.993 55.4927 301.343 56.0907 300.493 56.524C299.644 56.94 298.647 57.148 297.503 57.148H292.511ZM290.873 65V46.956H293.317V65H290.873ZM301.273 65L294.721 56.914L297.035 56.108L304.367 65H301.273ZM315.385 65L322.769 46.956H324.537L331.895 65H329.243L323.185 49.738H324.095L317.985 65H315.385ZM318.895 60.918V58.786H328.385V60.918H318.895ZM345.011 65V46.956H346.727L354.371 59.514H353.201L360.845 46.956H362.561V65H360.117V51.246L360.689 51.402L354.657 61.308H352.941L346.909 51.402L347.455 51.246V65H345.011Z" fill="#0E2442"/>
<defs>
<filter id="filter0_d_225_453" x="0" y="29.5" width="225" height="111" filterUnits="userSpaceOnUse" color-interpolation-filters="sRGB">
<feFlood flood-opacity="0" result="BackgroundImageFix"/>
<feColorMatrix in="SourceAlpha" type="matrix" values="0 0 0 0 0 0 0 0 0 0 0 0 0 0 0 0 0 0 127 0" result="hardAlpha"/>
<feOffset dx="10" dy="10"/>
<feGaussianBlur stdDeviation="5"/>
<feComposite in2="hardAlpha" operator="out"/>
<feColorMatrix type="matrix" values="0 0 0 0 0.054902 0 0 0 0 0.141176 0 0 0 0 0.258824 0 0 0 0.4 0"/>
<feBlend mode="normal" in2="BackgroundImageFix" result="effect1_dropShadow_225_453"/>
<feBlend mode="normal" in="SourceGraphic" in2="effect1_dropShadow_225_453" result="shape"/>
</filter>
</defs>
</svg>
