<svg width="705" height="214" viewBox="0 0 705 214" fill="none" xmlns="http://www.w3.org/2000/svg">
<path d="M203 84.5C166 91.5 143.833 123 142 138C165.2 198.8 214.667 206.333 236.5 202.5C160 175.5 185 104.5 203 84.5Z" fill="url(#paint0_linear_1_22)"/>
<path d="M202.78 84.538C165.18 93.338 146.667 124.5 142 138C124 65.5 197.667 12 227.5 21C266.3 19.4 290.667 42.833 297.5 54.5C298.3 65.7 292.833 73.667 290 76C251.2 53.6 215.447 72.371 202.78 84.538Z" fill="url(#paint1_linear_1_22)"/>
<path d="M298 55C299.5 29 281 -16.5 208 18.5C231.5 21 276 22.5 298 55Z" fill="url(#paint2_linear_1_22)"/>
<path d="M313.861 76.742C325.24 30.914 289 11 266.5 7C299.5 19 296 43.5 297.5 55.5C297.5 65.861 292.371 72.845 290 76C302.5 82 310.597 94.968 310.5 96C310.469 96.333 315.5 91 320.973 92.682C320 85.5 316.414 79.564 313.861 76.742Z" fill="url(#paint3_linear_1_22)"/>
<path d="M320.5 92.5C324.5 103.7 322.167 116.333 321 122C318.6 108 314.5 101 311 95.5C317 91 319.5 92.5 320.5 92.5Z" fill="#EA2B24"/>
<path d="M39 0H0L26 13.5H56.5C58.5 14.3 57.333 15.833 56.5 16.5H33.5L62.5 32H82C84.4 33.2 83 34.833 82 35.5H67L94.5 50H111C113.8 51.6 112.167 53.333 111 54H105.5L154 76.5C161.2 79.3 165 79.667 166 79.5H179C165 76.7 133.833 59.333 120 51L39 0Z" fill="#CCBCA2"/>
<path d="M191 0H39L77.5 25L116 49.5C133.833 58.833 169.9 77.6 171.5 78C173.5 78.5 184.5 82 197.5 80C210.5 78 211.5 75 218.5 70C225.5 65 230.5 51.5 231 49.5L231.25 47.5L231.5 46L232 43V40.5C232 39.3429 231.884 39.4232 231.5 36.5C231.453 36.1417 231.551 35.4564 231.5 35C231.46 34.6461 231.615 34.3448 231.5 34C231.404 33.7146 231.125 34.3786 231 33C230.5 27.5 227.5 21 224.5 17.5L223 15.5L221 13.5L217 10L214.5 8L212.5 6.5L208 4.5L206 3.5L204 2.5L199.5 1.5L197.5 1L195.5 0.5L191 0Z" fill="url(#paint4_linear_1_22)"/>
<path d="M296.5 54C298.433 54 300 52.433 300 50.5C300 48.567 298.433 47 296.5 47C294.567 47 293 48.567 293 50.5C293 52.433 294.567 54 296.5 54Z" fill="#FFEFDC"/>
<path d="M204 186H699" stroke="#332F58" stroke-width="4"/>
<path d="M264.51 115.82V130.78H248.53V176H229.66V130.78H213.85V115.82H264.51ZM294.448 130.865V138.26H313.148V152.455H294.448V160.955H315.698V176H275.578V115.82H315.698V130.865H294.448ZM327.059 145.825C327.059 139.875 328.249 134.577 330.629 129.93C333.066 125.283 336.523 121.685 340.999 119.135C345.476 116.528 350.746 115.225 356.809 115.225C362.023 115.225 366.669 116.217 370.749 118.2C374.886 120.127 378.229 122.875 380.779 126.445C383.386 130.015 385.114 134.18 385.964 138.94H366.074C365.168 136.957 363.864 135.427 362.164 134.35C360.521 133.217 358.623 132.65 356.469 132.65C353.296 132.65 350.774 133.84 348.904 136.22C347.091 138.6 346.184 141.802 346.184 145.825C346.184 149.848 347.091 153.05 348.904 155.43C350.774 157.81 353.296 159 356.469 159C358.623 159 360.521 158.462 362.164 157.385C363.864 156.252 365.168 154.693 366.074 152.71H385.964C385.114 157.47 383.386 161.635 380.779 165.205C378.229 168.775 374.886 171.552 370.749 173.535C366.669 175.462 362.023 176.425 356.809 176.425C350.746 176.425 345.476 175.15 340.999 172.6C336.523 169.993 333.066 166.367 330.629 161.72C328.249 157.073 327.059 151.775 327.059 145.825ZM526.538 176H507.668L487.693 145.74V176H468.823V115.82H487.693L507.668 146.59V115.82H526.538V176ZM559.884 115.82V176H541.014V115.82H559.884ZM572.656 145.825C572.656 139.875 573.846 134.577 576.226 129.93C578.663 125.283 582.12 121.685 586.596 119.135C591.073 116.528 596.343 115.225 602.406 115.225C607.62 115.225 612.266 116.217 616.346 118.2C620.483 120.127 623.826 122.875 626.376 126.445C628.983 130.015 630.711 134.18 631.561 138.94H611.671C610.765 136.957 609.461 135.427 607.761 134.35C606.118 133.217 604.22 132.65 602.066 132.65C598.893 132.65 596.371 133.84 594.501 136.22C592.688 138.6 591.781 141.802 591.781 145.825C591.781 149.848 592.688 153.05 594.501 155.43C596.371 157.81 598.893 159 602.066 159C604.22 159 606.118 158.462 607.761 157.385C609.461 156.252 610.765 154.693 611.671 152.71H631.561C630.711 157.47 628.983 161.635 626.376 165.205C623.826 168.775 620.483 171.552 616.346 173.535C612.266 175.462 607.62 176.425 602.406 176.425C596.343 176.425 591.073 175.15 586.596 172.6C582.12 169.993 578.663 166.367 576.226 161.72C573.846 157.073 572.656 151.775 572.656 145.825ZM673.63 176.595C667.964 176.595 662.75 175.263 657.99 172.6C653.287 169.937 649.547 166.253 646.77 161.55C643.994 156.847 642.605 151.548 642.605 145.655C642.605 139.762 643.994 134.463 646.77 129.76C649.547 125.057 653.287 121.402 657.99 118.795C662.75 116.132 667.964 114.8 673.63 114.8C679.297 114.8 684.482 116.132 689.185 118.795C693.889 121.402 697.6 125.057 700.32 129.76C703.097 134.463 704.485 139.762 704.485 145.655C704.485 151.548 703.097 156.847 700.32 161.55C697.6 166.253 693.86 169.937 689.1 172.6C684.397 175.263 679.24 176.595 673.63 176.595ZM673.63 159C677.37 159 680.26 157.81 682.3 155.43C684.34 152.993 685.36 149.735 685.36 145.655C685.36 141.518 684.34 138.26 682.3 135.88C680.26 133.443 677.37 132.225 673.63 132.225C669.834 132.225 666.915 133.443 664.875 135.88C662.835 138.26 661.815 141.518 661.815 145.655C661.815 149.735 662.835 152.993 664.875 155.43C666.915 157.81 669.834 159 673.63 159Z" fill="#291378"/>
<path d="M454.383 115.82V176H435.513V152.54H417.578V176H398.708V115.82H417.578V137.495H435.513V115.82H454.383Z" fill="#EB7511"/>
<path d="M277.438 205C277.438 206.687 277.133 208.146 276.523 209.375C275.914 210.604 275.078 211.552 274.016 212.219C272.953 212.885 271.74 213.219 270.375 213.219C269.01 213.219 267.797 212.885 266.734 212.219C265.672 211.552 264.836 210.604 264.227 209.375C263.617 208.146 263.313 206.687 263.313 205C263.313 203.312 263.617 201.854 264.227 200.625C264.836 199.396 265.672 198.448 266.734 197.781C267.797 197.115 269.01 196.781 270.375 196.781C271.74 196.781 272.953 197.115 274.016 197.781C275.078 198.448 275.914 199.396 276.523 200.625C277.133 201.854 277.438 203.312 277.438 205ZM275.563 205C275.563 203.615 275.331 202.445 274.867 201.492C274.409 200.539 273.786 199.818 273 199.328C272.219 198.839 271.344 198.594 270.375 198.594C269.406 198.594 268.529 198.839 267.742 199.328C266.961 199.818 266.339 200.539 265.875 201.492C265.417 202.445 265.188 203.615 265.188 205C265.188 206.385 265.417 207.555 265.875 208.508C266.339 209.461 266.961 210.182 267.742 210.672C268.529 211.161 269.406 211.406 270.375 211.406C271.344 211.406 272.219 211.161 273 210.672C273.786 210.182 274.409 209.461 274.867 208.508C275.331 207.555 275.563 206.385 275.563 205ZM293.273 197V213H291.398L282.679 200.437H282.523V213H280.585V197H282.46L291.21 209.594H291.367V197H293.273ZM297.04 213V197H306.696V198.719H298.977V204.125H306.196V205.844H298.977V211.281H306.821V213H297.04ZM329.031 202H327.093C326.979 201.443 326.778 200.953 326.492 200.531C326.21 200.109 325.867 199.755 325.46 199.469C325.059 199.177 324.614 198.958 324.124 198.812C323.635 198.667 323.124 198.594 322.593 198.594C321.624 198.594 320.747 198.839 319.96 199.328C319.179 199.818 318.557 200.539 318.093 201.492C317.635 202.445 317.406 203.615 317.406 205C317.406 206.385 317.635 207.555 318.093 208.508C318.557 209.461 319.179 210.182 319.96 210.672C320.747 211.161 321.624 211.406 322.593 211.406C323.124 211.406 323.635 211.333 324.124 211.187C324.614 211.042 325.059 210.826 325.46 210.539C325.867 210.247 326.21 209.891 326.492 209.469C326.778 209.042 326.979 208.552 327.093 208H329.031C328.885 208.818 328.619 209.549 328.234 210.195C327.848 210.841 327.369 211.391 326.796 211.844C326.223 212.292 325.58 212.633 324.867 212.867C324.158 213.102 323.4 213.219 322.593 213.219C321.229 213.219 320.015 212.885 318.953 212.219C317.89 211.552 317.054 210.604 316.445 209.375C315.835 208.146 315.531 206.687 315.531 205C315.531 203.312 315.835 201.854 316.445 200.625C317.054 199.396 317.89 198.448 318.953 197.781C320.015 197.115 321.229 196.781 322.593 196.781C323.4 196.781 324.158 196.898 324.867 197.133C325.58 197.367 326.223 197.711 326.796 198.164C327.369 198.612 327.848 199.159 328.234 199.805C328.619 200.445 328.885 201.177 329.031 202ZM332.052 213V197H333.989V211.281H341.427V213H332.052ZM346.254 197V213H344.317V197H346.254ZM362.904 202H360.966C360.852 201.443 360.651 200.953 360.365 200.531C360.084 200.109 359.74 199.755 359.334 199.469C358.932 199.177 358.487 198.958 357.998 198.812C357.508 198.667 356.998 198.594 356.466 198.594C355.498 198.594 354.62 198.839 353.834 199.328C353.052 199.818 352.43 200.539 351.966 201.492C351.508 202.445 351.279 203.615 351.279 205C351.279 206.385 351.508 207.555 351.966 208.508C352.43 209.461 353.052 210.182 353.834 210.672C354.62 211.161 355.498 211.406 356.466 211.406C356.998 211.406 357.508 211.333 357.998 211.187C358.487 211.042 358.932 210.826 359.334 210.539C359.74 210.247 360.084 209.891 360.365 209.469C360.651 209.042 360.852 208.552 360.966 208H362.904C362.758 208.818 362.492 209.549 362.107 210.195C361.722 210.841 361.242 211.391 360.669 211.844C360.097 212.292 359.453 212.633 358.74 212.867C358.031 213.102 357.274 213.219 356.466 213.219C355.102 213.219 353.888 212.885 352.826 212.219C351.763 211.552 350.927 210.604 350.318 209.375C349.709 208.146 349.404 206.687 349.404 205C349.404 203.312 349.709 201.854 350.318 200.625C350.927 199.396 351.763 198.448 352.826 197.781C353.888 197.115 355.102 196.781 356.466 196.781C357.274 196.781 358.031 196.898 358.74 197.133C359.453 197.367 360.097 197.711 360.669 198.164C361.242 198.612 361.722 199.159 362.107 199.805C362.492 200.445 362.758 201.177 362.904 202ZM365.925 213V197H367.862V204.937H368.05L375.237 197H377.768L371.05 204.219L377.768 213H375.425L369.862 205.562L367.862 207.812V213H365.925ZM386.244 213V197H395.838V198.719H388.181V204.125H395.119V205.844H388.181V213H386.244ZM412.546 205C412.546 206.687 412.241 208.146 411.632 209.375C411.022 210.604 410.186 211.552 409.124 212.219C408.061 212.885 406.848 213.219 405.483 213.219C404.119 213.219 402.905 212.885 401.843 212.219C400.78 211.552 399.944 210.604 399.335 209.375C398.726 208.146 398.421 206.687 398.421 205C398.421 203.312 398.726 201.854 399.335 200.625C399.944 199.396 400.78 198.448 401.843 197.781C402.905 197.115 404.119 196.781 405.483 196.781C406.848 196.781 408.061 197.115 409.124 197.781C410.186 198.448 411.022 199.396 411.632 200.625C412.241 201.854 412.546 203.312 412.546 205ZM410.671 205C410.671 203.615 410.439 202.445 409.976 201.492C409.517 200.539 408.895 199.818 408.108 199.328C407.327 198.839 406.452 198.594 405.483 198.594C404.515 198.594 403.637 198.839 402.851 199.328C402.069 199.818 401.447 200.539 400.983 201.492C400.525 202.445 400.296 203.615 400.296 205C400.296 206.385 400.525 207.555 400.983 208.508C401.447 209.461 402.069 210.182 402.851 210.672C403.637 211.161 404.515 211.406 405.483 211.406C406.452 211.406 407.327 211.161 408.108 210.672C408.895 210.182 409.517 209.461 409.976 208.508C410.439 207.555 410.671 206.385 410.671 205ZM415.694 213V197H421.1C422.35 197 423.376 197.214 424.178 197.641C424.98 198.062 425.574 198.643 425.959 199.383C426.345 200.122 426.537 200.964 426.537 201.906C426.537 202.849 426.345 203.685 425.959 204.414C425.574 205.143 424.983 205.716 424.186 206.133C423.389 206.544 422.371 206.75 421.131 206.75H416.756V205H421.069C421.923 205 422.61 204.875 423.131 204.625C423.657 204.375 424.037 204.021 424.272 203.562C424.511 203.099 424.631 202.547 424.631 201.906C424.631 201.266 424.511 200.706 424.272 200.227C424.032 199.747 423.649 199.378 423.123 199.117C422.597 198.852 421.902 198.719 421.037 198.719H417.631V213H415.694ZM423.225 205.812L427.162 213H424.912L421.037 205.812H423.225ZM435.733 197H438.046L443.483 210.281H443.671L449.108 197H451.421V213H449.608V200.844H449.452L444.452 213H442.702L437.702 200.844H437.546V213H435.733V197ZM455.852 213H453.821L459.696 197H461.696L467.571 213H465.539L460.758 199.531H460.633L455.852 213ZM456.602 206.75H464.789V208.469H456.602V206.75ZM482.64 197V213H480.765L472.047 200.437H471.89V213H469.953V197H471.828L480.578 209.594H480.734V197H482.64ZM485.032 197H487.251L491.689 204.469H491.876L496.314 197H498.532L492.751 206.406V213H490.814V206.406L485.032 197ZM515.756 201C515.662 200.208 515.282 199.594 514.615 199.156C513.948 198.719 513.131 198.5 512.162 198.5C511.454 198.5 510.834 198.615 510.303 198.844C509.777 199.073 509.365 199.388 509.068 199.789C508.777 200.19 508.631 200.646 508.631 201.156C508.631 201.583 508.732 201.951 508.935 202.258C509.144 202.56 509.409 202.812 509.732 203.016C510.055 203.214 510.394 203.378 510.748 203.508C511.102 203.633 511.428 203.734 511.724 203.812L513.349 204.25C513.766 204.359 514.23 204.51 514.74 204.703C515.256 204.896 515.748 205.159 516.217 205.492C516.691 205.82 517.081 206.242 517.389 206.758C517.696 207.273 517.849 207.906 517.849 208.656C517.849 209.521 517.623 210.302 517.17 211C516.722 211.698 516.066 212.253 515.201 212.664C514.342 213.076 513.297 213.281 512.068 213.281C510.922 213.281 509.93 213.096 509.092 212.727C508.258 212.357 507.602 211.841 507.123 211.18C506.649 210.518 506.381 209.75 506.318 208.875H508.318C508.37 209.479 508.573 209.979 508.928 210.375C509.287 210.766 509.74 211.057 510.287 211.25C510.839 211.437 511.433 211.531 512.068 211.531C512.808 211.531 513.472 211.411 514.06 211.172C514.649 210.927 515.115 210.589 515.459 210.156C515.803 209.719 515.974 209.208 515.974 208.625C515.974 208.094 515.826 207.661 515.529 207.328C515.232 206.995 514.842 206.724 514.357 206.516C513.873 206.307 513.349 206.125 512.787 205.969L510.818 205.406C509.568 205.047 508.579 204.534 507.849 203.867C507.12 203.201 506.756 202.328 506.756 201.25C506.756 200.354 506.998 199.573 507.482 198.906C507.972 198.234 508.628 197.714 509.451 197.344C510.279 196.969 511.204 196.781 512.224 196.781C513.256 196.781 514.172 196.966 514.974 197.336C515.777 197.701 516.412 198.201 516.881 198.836C517.355 199.471 517.605 200.193 517.631 201H515.756ZM534.425 205C534.425 206.687 534.12 208.146 533.511 209.375C532.902 210.604 532.066 211.552 531.003 212.219C529.941 212.885 528.727 213.219 527.362 213.219C525.998 213.219 524.784 212.885 523.722 212.219C522.659 211.552 521.823 210.604 521.214 209.375C520.605 208.146 520.3 206.687 520.3 205C520.3 203.312 520.605 201.854 521.214 200.625C521.823 199.396 522.659 198.448 523.722 197.781C524.784 197.115 525.998 196.781 527.362 196.781C528.727 196.781 529.941 197.115 531.003 197.781C532.066 198.448 532.902 199.396 533.511 200.625C534.12 201.854 534.425 203.312 534.425 205ZM532.55 205C532.55 203.615 532.318 202.445 531.855 201.492C531.396 200.539 530.774 199.818 529.987 199.328C529.206 198.839 528.331 198.594 527.362 198.594C526.394 198.594 525.516 198.839 524.73 199.328C523.948 199.818 523.326 200.539 522.862 201.492C522.404 202.445 522.175 203.615 522.175 205C522.175 206.385 522.404 207.555 522.862 208.508C523.326 209.461 523.948 210.182 524.73 210.672C525.516 211.161 526.394 211.406 527.362 211.406C528.331 211.406 529.206 211.161 529.987 210.672C530.774 210.182 531.396 209.461 531.855 208.508C532.318 207.555 532.55 206.385 532.55 205ZM537.573 213V197H539.51V211.281H546.948V213H537.573ZM560.338 197H562.275V207.594C562.275 208.687 562.017 209.664 561.502 210.523C560.991 211.378 560.27 212.052 559.338 212.547C558.406 213.036 557.312 213.281 556.057 213.281C554.801 213.281 553.708 213.036 552.775 212.547C551.843 212.052 551.119 211.378 550.603 210.523C550.093 209.664 549.838 208.687 549.838 207.594V197H551.775V207.438C551.775 208.219 551.947 208.914 552.291 209.523C552.635 210.128 553.124 210.604 553.76 210.953C554.4 211.297 555.166 211.469 556.057 211.469C556.947 211.469 557.713 211.297 558.353 210.953C558.994 210.604 559.484 210.128 559.822 209.523C560.166 208.914 560.338 208.219 560.338 207.438V197ZM565.159 198.719V197H577.159V198.719H572.128V213H570.191V198.719H565.159ZM581.977 197V213H580.04V197H581.977ZM599.252 205C599.252 206.687 598.947 208.146 598.338 209.375C597.729 210.604 596.893 211.552 595.83 212.219C594.768 212.885 593.554 213.219 592.189 213.219C590.825 213.219 589.611 212.885 588.549 212.219C587.486 211.552 586.65 210.604 586.041 209.375C585.432 208.146 585.127 206.687 585.127 205C585.127 203.312 585.432 201.854 586.041 200.625C586.65 199.396 587.486 198.448 588.549 197.781C589.611 197.115 590.825 196.781 592.189 196.781C593.554 196.781 594.768 197.115 595.83 197.781C596.893 198.448 597.729 199.396 598.338 200.625C598.947 201.854 599.252 203.312 599.252 205ZM597.377 205C597.377 203.615 597.145 202.445 596.682 201.492C596.223 200.539 595.601 199.818 594.814 199.328C594.033 198.839 593.158 198.594 592.189 198.594C591.221 198.594 590.343 198.839 589.557 199.328C588.775 199.818 588.153 200.539 587.689 201.492C587.231 202.445 587.002 203.615 587.002 205C587.002 206.385 587.231 207.555 587.689 208.508C588.153 209.461 588.775 210.182 589.557 210.672C590.343 211.161 591.221 211.406 592.189 211.406C593.158 211.406 594.033 211.161 594.814 210.672C595.601 210.182 596.223 209.461 596.682 208.508C597.145 207.555 597.377 206.385 597.377 205ZM615.087 197V213H613.212L604.494 200.437H604.337V213H602.4V197H604.275L613.025 209.594H613.181V197H615.087ZM627.604 201C627.51 200.208 627.13 199.594 626.464 199.156C625.797 198.719 624.979 198.5 624.01 198.5C623.302 198.5 622.682 198.615 622.151 198.844C621.625 199.073 621.214 199.388 620.917 199.789C620.625 200.19 620.479 200.646 620.479 201.156C620.479 201.583 620.581 201.951 620.784 202.258C620.992 202.56 621.258 202.812 621.581 203.016C621.904 203.214 622.242 203.378 622.596 203.508C622.951 203.633 623.276 203.734 623.573 203.812L625.198 204.25C625.615 204.359 626.078 204.51 626.589 204.703C627.104 204.896 627.596 205.159 628.065 205.492C628.539 205.82 628.93 206.242 629.237 206.758C629.544 207.273 629.698 207.906 629.698 208.656C629.698 209.521 629.471 210.302 629.018 211C628.57 211.698 627.914 212.253 627.05 212.664C626.19 213.076 625.146 213.281 623.917 213.281C622.771 213.281 621.779 213.096 620.94 212.727C620.107 212.357 619.451 211.841 618.971 211.18C618.497 210.518 618.229 209.75 618.167 208.875H620.167C620.219 209.479 620.422 209.979 620.776 210.375C621.135 210.766 621.589 211.057 622.135 211.25C622.688 211.437 623.281 211.531 623.917 211.531C624.656 211.531 625.32 211.411 625.909 211.172C626.497 210.927 626.964 210.589 627.307 210.156C627.651 209.719 627.823 209.208 627.823 208.625C627.823 208.094 627.675 207.661 627.378 207.328C627.081 206.995 626.69 206.724 626.206 206.516C625.721 206.307 625.198 206.125 624.635 205.969L622.667 205.406C621.417 205.047 620.427 204.534 619.698 203.867C618.969 203.201 618.604 202.328 618.604 201.25C618.604 200.354 618.846 199.573 619.331 198.906C619.82 198.234 620.477 197.714 621.3 197.344C622.128 196.969 623.052 196.781 624.073 196.781C625.104 196.781 626.021 196.966 626.823 197.336C627.625 197.701 628.26 198.201 628.729 198.836C629.203 199.471 629.453 200.193 629.479 201H627.604Z" fill="#222129"/>
<defs>
<linearGradient id="paint0_linear_1_22" x1="189" y1="66.5" x2="189" y2="212.5" gradientUnits="userSpaceOnUse">
<stop stop-color="#750B45"/>
<stop offset="1" stop-color="#E40C77"/>
</linearGradient>
<linearGradient id="paint1_linear_1_22" x1="316.5" y1="32" x2="113.5" y2="113.5" gradientUnits="userSpaceOnUse">
<stop stop-color="#332F58"/>
<stop offset="0.502294" stop-color="#6B95C1"/>
<stop offset="1" stop-color="#2A3551"/>
</linearGradient>
<linearGradient id="paint2_linear_1_22" x1="298.5" y1="47.056" x2="210.371" y2="-0.859996" gradientUnits="userSpaceOnUse">
<stop stop-color="#EC311E"/>
<stop offset="0.461252" stop-color="#E9851F"/>
</linearGradient>
<linearGradient id="paint3_linear_1_22" x1="281" y1="0.5" x2="328" y2="118.5" gradientUnits="userSpaceOnUse">
<stop stop-color="#FF8515"/>
<stop offset="1" stop-color="#F88010"/>
</linearGradient>
<linearGradient id="paint4_linear_1_22" x1="247" y1="27" x2="-39" y2="4.13314e-06" gradientUnits="userSpaceOnUse">
<stop stop-color="#CF1872"/>
<stop offset="0.492696" stop-color="#661C57"/>
<stop offset="1" stop-color="#4A1C4D"/>
</linearGradient>
</defs>
</svg>
