<svg width="512" height="512" viewBox="0 0 512 512" fill="none" xmlns="http://www.w3.org/2000/svg">
<path d="M199.056 292.54C200.291 288.589 201.445 284.61 202.78 280.693C204.628 275.269 206.891 270.009 209.41 264.862C212.175 259.212 215.191 253.709 218.547 248.378C221.969 242.943 225.711 237.748 229.715 232.747C232.229 229.607 235.013 226.681 237.706 223.687C241.544 219.418 245.78 215.561 250.159 211.862C251.93 210.366 253.81 208.999 255.846 207.543C257.145 207.516 258.177 207.17 259.271 208.004C264.796 212.216 269.875 216.939 274.648 221.94C279.301 226.817 283.884 231.793 287.91 237.234C288.649 238.232 289.538 239.12 290.384 240.175C290.595 240.706 290.731 241.149 290.97 241.528C293.333 245.275 295.82 248.948 298.059 252.767C300.527 256.975 302.955 261.225 305.07 265.615C308.572 272.886 311.458 280.412 313.902 288.121C316.833 297.364 318.706 306.821 320.065 316.389C320.495 319.415 320.531 322.499 320.711 325.558C320.855 327.994 321.067 330.436 321.023 332.871C320.972 335.762 320.667 338.648 320.497 341.537C320.434 342.614 320.423 343.695 320.423 344.773C320.423 345.333 320.389 345.95 321.117 346.163C323.339 344.959 325.526 343.685 327.79 342.566C331.016 340.973 334.298 339.493 337.788 337.999C338.939 337.799 339.905 337.677 340.77 337.313C349.763 333.534 359.095 330.859 368.673 329.146C374.084 328.179 379.589 327.732 385.055 327.079C385.92 326.975 386.76 326.919 387.326 326.142C387.939 326.138 388.552 326.134 389.458 326.255C390.643 326.49 391.535 326.678 392.43 326.693C395.206 326.738 397.984 326.716 400.761 326.722C403.267 326.728 405.739 326.877 407.866 328.447C407.838 328.604 407.81 328.761 407.698 329.087C407.56 329.335 407.523 329.422 407.504 329.517C407.267 330.439 407.121 331.396 406.778 332.276C405.068 336.662 403.342 341.04 400.932 345.112C398.366 349.445 396.088 353.968 393.277 358.133C389.317 364.002 385.003 369.635 380.107 374.785C377.535 377.491 375.11 380.359 372.354 382.862C368.672 386.206 364.757 389.298 360.892 392.436C358.957 394.008 356.959 395.515 354.902 396.922C352.753 398.393 350.51 399.73 348.283 401.084C347.076 401.817 345.806 402.445 344.583 403.152C338.981 406.394 333.113 409.089 327.048 411.304C322.963 412.796 318.738 413.905 314.448 415.136C314.166 414.915 313.998 414.583 313.86 414.596C313.069 414.665 312.281 414.796 311.5 414.943C309.273 415.361 307.066 415.933 304.822 416.189C302.334 416.472 299.86 416.643 297.505 417.632C296.634 417.997 295.63 418.091 294.674 418.199C287.161 419.045 279.631 419.678 272.062 419.591C269.764 419.564 267.766 420.045 265.915 421.582C264.555 422.71 264.023 423.926 264.202 425.562C264.374 427.144 264.562 428.727 264.839 430.293C264.931 430.813 265.214 431.398 265.598 431.746C266.389 432.463 266.715 433.351 266.72 434.326C266.729 436.082 266.64 437.84 266.542 439.594C266.489 440.53 268.681 441.677 267.995 442.368C267.54 442.827 264.573 443.103 264.414 443.732C264.025 445.273 263.704 446.839 263.492 448.413C263.209 450.525 263.518 452.609 264.08 454.656C264.322 455.54 264.666 456.249 265.812 456.114C266.639 456.017 267.057 456.606 267.245 457.307C267.39 457.85 267.455 458.426 267.467 458.989C267.502 460.637 267.442 462.289 267.523 463.934C267.565 464.766 267.831 465.587 267.995 466.413C267.957 466.985 267.918 467.557 267.805 468.22C267.195 467.84 267.089 468.329 266.897 468.673C266.204 469.909 265.509 471.143 264.8 472.37C264.164 473.471 263.351 474.355 262.163 474.943C261.692 475.177 261.453 475.881 261.108 476.37C261.108 476.37 261.102 476.401 260.968 476.362C259.852 476.03 258.974 476.14 258.283 476.98C258.283 476.98 258.158 477.007 257.933 476.998C256.437 476.846 255.168 476.679 253.894 476.573C253.406 476.532 252.907 476.631 252.414 476.666C249.837 476.232 247.876 474.821 246.33 472.783C245.925 472.25 245.614 471.646 245.276 470.843C245.313 470.331 245.368 470.048 245.351 469.769C245.221 467.568 244.979 465.369 244.953 463.166C244.783 448.991 245.311 434.81 244.528 420.542C243.565 419.494 242.382 419.593 241.259 419.609C234.882 419.698 228.536 419.202 222.192 418.643C221.57 418.588 220.942 418.608 220.18 418.575C219.483 418.468 218.925 418.362 218.362 418.294C208.187 417.068 198.249 414.797 188.522 411.575C187.675 411.294 186.75 411.251 185.861 411.097C185.861 411.097 185.867 411.077 185.801 410.993C185.156 410.568 184.6 410.175 183.993 409.893C179.816 407.954 175.549 406.189 171.459 404.082C162.573 399.502 154.413 393.821 146.826 387.311C141.202 382.485 135.985 377.253 131.165 371.632C125.861 365.446 121.044 358.898 116.874 351.887C116.571 351.378 116.249 350.925 115.569 350.961C113.949 348.049 112.271 345.166 110.728 342.213C109.631 340.112 108.631 337.949 107.741 335.751C106.768 333.346 105.959 330.874 105.11 328.42C104.988 328.066 105.039 327.652 105 327.144C108.064 325.803 111.254 325.589 114.787 325.656C116.618 325.956 118.152 326.277 119.669 325.603C119.822 325.63 119.976 325.657 120.375 325.743C121.015 325.864 121.405 325.96 121.8 325.984C125.714 326.232 129.643 326.335 133.54 326.739C138.854 327.29 144.201 327.782 149.435 328.802C164.3 331.7 178.218 337.249 191.505 344.453C192.542 345.015 193.683 345.385 194.777 345.851C194.778 345.858 194.767 345.851 194.76 345.715C194.737 345.309 194.722 345.038 194.707 344.768C194.636 344.513 194.565 344.258 194.566 343.947C194.827 344.123 195.018 344.356 195.429 344.859C195.359 344.042 195.321 343.597 195.283 343.152C195.006 339.873 194.561 336.597 194.486 333.314C194.332 326.611 194.808 319.933 195.681 313.28C196.494 307.078 197.657 300.948 199.055 294.856C199.223 294.122 199.063 293.314 199.056 292.54Z" fill="#007042"/>
<path d="M109.065 299.766C109.038 299.301 109.01 298.837 109.031 298.109C109.136 297.009 109.306 296.162 109.229 295.339C108.762 290.363 108.056 285.403 107.779 280.418C107.456 274.58 107.476 268.723 107.371 262.874C107.26 256.61 107.838 250.389 108.607 244.183C108.976 241.197 109.373 238.214 109.811 235.115C109.978 234.679 110.126 234.366 110.197 234.036C110.788 231.265 111.405 228.498 111.916 225.712C112.042 225.025 111.809 224.272 111.741 223.55C112.552 219.302 113.939 215.217 115.345 211.147C116.435 207.989 117.724 204.899 118.946 201.787C119.172 201.211 119.497 200.675 119.974 200.167C121.256 200.498 122.339 200.784 123.537 201.124C124.625 201.358 125.598 201.537 126.663 201.79C127.325 202.111 127.891 202.369 128.467 202.602C132.685 204.305 136.999 205.803 141.104 207.744C150.138 212.016 158.56 217.314 166.244 223.726C170.609 227.369 174.996 230.999 179.168 234.856C185.108 240.346 190.348 246.502 195.514 252.72C196.597 254.022 196.694 255.055 195.942 256.535C194.319 259.728 192.874 263.011 191.37 266.264C191.062 266.931 190.708 267.618 191.18 268.367C190.683 269.644 190.186 270.922 189.582 272.291C188.376 272.331 188.433 273.31 188.232 273.917C186.179 280.126 184.168 286.349 182.173 292.577C181.879 293.495 181.685 294.451 181.518 295.401C180.439 301.562 179.369 307.725 178.323 313.891C178.127 315.045 177.623 315.936 176.536 316.409C175.686 316.78 175.227 317.391 174.955 318.279C174.622 319.368 174.261 319.524 173.176 319.303C172.732 319.212 172.3 319.058 171.869 318.913C161.326 315.354 150.552 312.797 139.5 311.442C134.929 310.882 130.364 310.375 125.741 310.265C122.273 310.182 118.818 309.928 115.356 310.325C114.907 310.376 114.446 310.35 113.992 310.326C112.486 310.249 112.14 309.952 111.708 308.521C111.414 307.547 111.074 306.588 110.755 305.484C110.68 304.741 110.67 304.119 110.507 303.54C110.358 303.007 110.017 303.291 109.751 303.507C109.615 302.735 109.478 301.964 109.35 300.914C109.377 300.344 109.398 300.051 109.447 299.703C109.507 299.531 109.539 299.414 109.571 299.297C109.545 299.291 109.518 299.284 109.491 299.278C109.466 299.438 109.441 299.597 109.328 299.761C109.182 299.766 109.124 299.766 109.065 299.766Z" fill="#007042"/>
<path d="M328.638 279.96C327.641 277.367 326.706 274.749 325.634 272.188C324.189 268.739 322.673 265.318 321.124 261.915C319.951 259.339 318.678 256.809 317.389 254.131C318.505 252.79 319.6 251.349 320.824 250.028C324.331 246.242 327.809 242.422 331.456 238.774C334.379 235.85 337.486 233.103 340.601 230.379C343.033 228.253 345.554 226.222 348.124 224.265C350.149 222.724 352.285 221.326 354.416 219.93C356.928 218.283 359.437 216.62 362.037 215.119C367.834 211.774 373.782 208.71 380.1 206.462C383.727 205.17 387.431 204.09 391.117 202.973C392.143 202.663 393.252 202.632 394.285 202.342C395.268 202.066 395.77 202.388 396.121 203.289C397.006 205.558 397.997 207.787 398.833 210.073C399.611 212.199 400.244 214.378 400.943 216.786C401.013 218.036 400.964 219.059 401.172 220.027C401.656 222.277 402.239 224.508 402.832 226.733C403.048 227.54 403.407 228.31 403.703 229.243C403.819 230.232 403.926 231.077 404.046 231.92C404.662 236.25 405.362 240.57 405.867 244.912C406.134 247.202 406.415 248.701 405.867 251.774C406.415 252.969 404.875 252.986 405.867 253.652C407.021 254.426 406.581 255.696 406.415 256.929C406.182 258.662 405.752 260.369 405.403 262.087C405.201 263.083 404.928 264.072 404.825 265.079C404.789 265.437 405.105 266.116 405.362 266.17C406.596 266.432 406.671 267.406 406.68 268.275C406.721 272.175 408.001 276.017 407.167 279.965C406.899 281.234 406.899 282.563 406.815 283.866C406.292 291.936 405.145 299.916 403.415 307.814C403.135 309.09 402.921 310.38 402.522 311.669C400.267 311.572 398.167 311.371 396.069 311.389C392.604 311.418 389.141 311.593 385.677 311.7C380.043 311.874 374.426 312.318 368.898 313.415C363.044 314.576 357.23 315.945 351.413 317.289C349.983 317.619 348.61 318.198 347.213 318.67C346.803 318.809 346.474 319.017 346.696 319.541C344.103 320.387 341.511 321.233 338.702 321.977C338.259 321.186 337.915 320.511 337.827 319.805C337.512 317.27 337.342 314.716 337.012 312.183C335.663 301.841 333.04 291.793 329.947 281.855C329.709 281.092 329.462 280.323 328.638 279.96Z" fill="#007042"/>
<path d="M163.068 198.354C163.135 198.081 163.202 197.808 163.342 197.346C163.466 197.038 163.518 196.919 163.569 196.8C163.538 196.667 163.508 196.533 163.591 196.251C163.788 195.705 163.872 195.308 163.957 194.912C163.957 194.912 163.949 194.886 164.019 194.825C164.135 194.471 164.18 194.18 164.225 193.888C164.821 191.533 165.351 189.158 166.03 186.827C166.711 184.491 167.463 182.169 168.324 179.894C169.826 175.923 171.357 171.959 173.024 168.056C174.336 164.986 175.782 161.964 177.336 159.009C178.704 156.408 180.275 153.911 181.809 151.4C183.462 148.696 185.058 145.944 186.893 143.366C189.748 139.355 192.698 135.404 195.771 131.559C198.209 128.51 200.848 125.616 203.484 122.732C205.01 121.062 206.706 119.547 208.515 117.931C209.398 118.283 210.164 118.577 210.772 119.066C213.56 121.309 216.345 123.559 219.049 125.9C221.024 127.608 222.996 129.349 224.751 131.275C228.844 135.766 232.814 140.368 236.816 144.94C241.8 150.637 245.408 157.216 248.826 163.902C249.596 165.408 250.093 167.063 250.627 168.679C252.833 175.349 252.494 182.252 252.443 189.126C252.436 190.071 251.897 190.637 251.153 191.182C247.716 193.701 244.25 196.188 240.938 198.864C237.537 201.613 234.277 204.538 231.007 207.444C229.183 209.064 227.418 210.757 225.712 212.502C224.525 213.716 223.489 215.077 222.377 216.365C220.633 218.385 218.812 220.343 217.149 222.429C214.777 225.405 212.547 228.495 210.193 231.486C209.538 232.318 208.716 233.052 207.863 233.685C207.032 234.301 206.452 234.976 206.379 236.033C206.312 237.009 205.809 237.739 205.039 238.306C204.799 238.074 204.559 237.841 204.227 237.418C203.834 236.571 203.66 235.806 203.208 235.277C201.403 233.163 199.55 231.087 197.645 229.061C188.587 219.425 178.624 210.835 167.702 203.372C166.113 202.286 164.406 201.374 162.753 200.382C162.749 200.241 162.744 200.1 162.829 199.809C163.489 199.284 163.431 198.836 163.068 198.354Z" fill="#007042"/>
<path d="M308.472 236.94C308.355 236.782 308.237 236.624 308.131 236.268C307.898 235.453 307.759 234.76 307.388 234.231C306.181 232.51 304.903 230.839 303.628 229.167C299.075 223.198 294.305 217.399 289.072 212.019C281.722 204.465 273.644 197.742 264.931 191.806C263.613 190.908 263.014 189.898 263.032 188.302C263.091 183.075 262.96 177.845 263.658 172.641C263.742 172.018 263.475 171.348 263.37 170.7C263.848 169.024 264.186 167.291 264.832 165.682C266.393 161.794 268.373 158.111 270.587 154.549C275.091 147.307 280.477 140.771 286.282 134.544C290.189 130.353 294.455 126.552 298.695 122.721C300.327 121.246 302.115 119.943 304.039 118.541C305.649 118.548 306.681 119.19 307.591 120.259C308.803 121.683 310.184 122.961 311.448 124.343C314.087 127.229 316.71 130.131 319.318 133.046C324.876 139.259 329.33 146.265 333.556 153.394C336.389 158.172 338.874 163.169 341.298 168.173C344.149 174.058 346.418 180.191 348.275 186.464C349.275 189.84 350.174 193.245 351.1 196.642C351.311 197.417 351.462 198.203 352.21 198.674C352.429 199.366 352.718 200.047 352.835 200.756C352.886 201.067 352.586 201.434 352.232 201.804C351.435 201.995 350.775 202.036 350.282 202.345C347.923 203.824 345.564 205.312 343.289 206.917C338.827 210.064 334.372 213.227 330.347 216.94C328.174 218.944 326 220.949 323.861 222.989C321.064 225.659 318.302 228.365 315.523 231.054C315.086 231.476 314.783 231.929 315.091 232.561C314.781 232.975 314.472 233.389 314.005 233.802C313.299 233.297 312.804 233.542 312.368 233.951C311.756 234.525 311.143 235.106 310.599 235.742C310.024 236.415 309.369 236.874 308.472 236.94Z" fill="#007042"/>
<path d="M256.252 36.0711C256.252 36.0711 256.341 35.9571 256.502 36.0178C258.313 37.5428 260.022 38.9455 261.598 40.485C264.431 43.2525 267.207 46.0787 269.959 48.9268C271.49 50.5113 272.898 52.2151 274.419 53.8096C274.871 54.2831 275.52 54.5681 276.078 54.9395C276.078 54.9395 276.222 54.9747 276.302 55.1288C276.857 56.2253 277.225 57.2444 277.83 58.0934C278.91 59.6063 280.112 61.034 281.303 62.4641C282.382 63.7596 283.514 65.0107 284.659 66.317C284.744 66.3999 284.792 66.4474 284.866 66.6233C285.584 67.9804 286.197 69.2622 286.983 70.428C289.423 74.0504 292.099 77.5251 294.367 81.2498C297.345 86.1409 300.021 91.2157 302.829 96.2107C303.303 97.0533 303.742 97.9294 304.736 98.2969C304.736 98.2969 304.714 98.3226 304.713 98.4264C304.706 98.6859 304.7 98.8416 304.592 99.0524C303.734 99.6106 302.936 100.06 302.23 100.626C297.58 104.348 292.897 108.033 288.332 111.857C285.552 114.186 282.913 116.691 280.304 119.212C278.428 121.023 276.651 122.944 274.927 124.902C271.891 128.349 268.858 131.805 265.957 135.366C263.415 138.486 261.059 141.759 258.612 144.958C257.837 145.971 257.63 145.976 256.589 145.106C256.458 144.997 256.333 144.881 256.164 144.659C255.922 144.206 255.759 143.834 255.518 143.524C252.653 139.846 249.887 136.084 246.877 132.528C241.879 126.623 236.558 121.018 230.868 115.757C224.68 110.036 218.325 104.535 211.379 99.7412C210.781 99.3283 210.286 98.765 209.743 98.2716C211.774 94.4042 213.709 90.4821 215.863 86.6847C218.044 82.8401 220.367 79.0693 222.766 75.3559C225.75 70.738 228.857 66.1987 232.315 61.9125C234.881 58.7318 237.32 55.4405 240.017 52.3764C243.119 48.8529 246.411 45.4931 249.686 42.1263C251.344 40.4217 253.148 38.8581 255.1 37.198C255.39 37.1803 255.466 37.1953 255.548 37.2121C255.554 37.2137 255.543 37.2091 255.528 37.1038C255.506 36.9279 255.498 36.8574 255.491 36.7868C255.525 36.7153 255.576 36.6589 255.783 36.5213C256.032 36.307 256.142 36.189 256.252 36.0711Z" fill="#007042"/>
<path d="M127.098 179.555C127.711 176.967 128.221 174.348 128.961 171.796C130.097 167.879 131.312 163.98 132.644 160.124C133.714 157.024 134.933 153.969 136.22 150.951C137.66 147.571 139.168 144.214 140.796 140.921C143.206 136.047 145.893 131.326 148.794 126.719C152.332 121.097 156.113 115.651 160.199 110.42C164.251 105.232 168.573 100.272 173.24 95.6235C175.208 93.6632 177.238 91.7614 179.301 89.9009C180.809 88.5408 182.417 87.2917 184.137 86.0497C186.933 90.4211 189.619 94.7121 191.571 99.4022C192.728 102.183 193.85 104.978 195.007 107.759C195.469 108.869 195.207 109.699 194.259 110.441C193.457 111.069 192.72 111.793 192.024 112.54C189.39 115.366 186.627 118.091 184.204 121.089C180.099 126.17 176.036 131.303 172.285 136.646C167.512 143.447 163.576 150.766 160.025 158.282C155.271 168.343 151.603 178.776 149.296 189.674C149.201 190.118 149.14 190.574 148.998 191.004C148.706 191.886 148.349 192.05 147.443 191.745C147.121 191.637 146.824 191.46 146.51 191.326C140.913 188.938 135.287 186.635 129.362 185.151C127.226 184.616 127.033 184.263 127.394 182C127.53 181.151 127.717 180.307 127.098 179.555Z" fill="#007042"/>
<path d="M353.523 156.374C353.438 156.199 353.352 156.025 353.273 155.652C353.348 154.144 352.675 153.169 351.805 152.15C350.215 149.193 348.784 146.277 347.08 143.53C342.759 136.564 337.986 129.916 332.649 123.682C328.914 119.32 325.187 114.953 320.857 111.147C320.179 110.551 319.602 109.838 318.979 109.179C319.579 107.437 320.092 105.658 320.801 103.961C321.947 101.221 323.222 98.5352 324.57 95.7497C325.514 95.8063 325.563 95.0733 325.823 94.6278C326.914 92.7637 327.933 90.8566 329.053 89.0109C330.067 87.341 330.511 87.2422 331.966 88.4698C334.527 90.6311 337.101 92.7885 339.524 95.0998C344.134 99.4972 348.367 104.255 352.385 109.197C353.961 111.137 355.437 113.16 356.925 115.17C359.292 118.365 361.753 121.501 363.949 124.812C366.241 128.266 368.273 131.892 370.403 135.452C370.822 136.153 371.232 136.824 372.138 136.936C372.102 136.987 372.066 137.039 371.957 137.159C371.911 137.347 371.939 137.466 371.998 137.691C372.235 138.182 372.441 138.567 372.738 139.018C373.03 139.182 373.231 139.281 373.432 139.379C373.432 139.379 373.41 139.384 373.439 139.475C373.581 139.744 373.695 139.922 373.808 140.099C373.726 140.094 373.644 140.088 373.532 140.122C373.559 140.444 373.616 140.726 373.673 141.005C373.671 141.002 373.668 140.995 373.69 141.11C373.925 141.72 374.139 142.215 374.394 142.814C374.75 143.418 375.065 143.917 375.38 144.414C375.378 144.413 375.376 144.409 375.414 144.498C375.542 144.757 375.631 144.928 375.72 145.097C375.72 145.097 375.719 145.096 375.743 145.221C376.361 146.819 376.935 148.301 377.556 149.763C380.335 156.306 382.932 162.918 384.819 169.782C386.038 174.218 387.14 178.687 388.278 183.145C388.49 183.979 388.638 184.825 389.447 185.33C389.447 185.33 389.468 185.336 389.386 185.442C388.617 185.901 387.963 186.376 387.233 186.585C385.222 187.159 383.159 187.552 381.157 188.152C379.654 188.604 378.214 189.267 376.614 189.853C373.918 190.778 371.352 191.683 368.789 192.596C367.16 193.177 366.861 192.993 366.459 191.282C365.824 188.574 365.191 185.864 364.471 183.179C364.29 182.506 363.778 181.923 363.418 181.299C363.384 181.25 363.35 181.2 363.327 180.965C363.26 180.008 363.307 179.197 363.085 178.468C360.956 171.475 358.124 164.754 355.03 158.142C354.713 157.466 354.034 156.959 353.523 156.374Z" fill="#007042"/>
<path d="M389.453 185.201C388.638 184.825 388.491 183.979 388.278 183.145C387.14 178.687 386.038 174.218 384.819 169.782C382.933 162.919 380.336 156.307 377.556 149.763C376.935 148.301 376.362 146.819 375.855 145.214C376.019 145.077 376.093 145.073 376.168 145.068C377.38 147.625 378.642 150.159 379.786 152.746C380.632 154.659 381.395 156.615 382.072 158.595C383.63 163.154 385.219 167.708 386.592 172.325C387.575 175.629 388.228 179.031 389.02 182.595C389.026 182.983 389.04 183.166 389.053 183.349C389.188 183.923 389.323 184.497 389.453 185.201Z" fill="#007042"/>
</svg>
